<svg width="488" height="138" viewBox="0 0 488 138" fill="none" xmlns="http://www.w3.org/2000/svg" xmlns:xlink="http://www.w3.org/1999/xlink">
  <rect width="488" height="138" rx="10" fill="white"/>
  <path fill-rule="evenodd" clip-rule="evenodd" d="M82.7 76.1726C84.9 76.1726 86.6 78.2549 86.6 80.6843C86.6 83.2294 84.8 85.1961 82.7 85.1961C80.5 85.1961 78.8 83.1137 78.8 80.6843C78.8 78.1392 80.5 76.1726 82.7 76.1726ZM82.7 87.8569C86.1 87.8569 88.9 84.6177 88.9 80.6843C88.9 76.751 86.1 73.5118 82.7 73.5118C79.3 73.5118 76.5 76.751 76.5 80.6843C76.5 84.6177 79.3 87.8569 82.7 87.8569Z" fill="black"/>
  <path fill-rule="evenodd" clip-rule="evenodd" d="M87.1 90.5176H78.7C76.2 90.5176 74.2 92.8314 74.2 95.7235V104.978C74.2 107.524 75.6 110.069 78.2 110.069C78.2 110.069 78.6 110.069 78.7 110.069V127.19H81V107.524H78.8C77.6 107.524 76.5 106.367 76.5 104.978V95.7235C76.5 94.2196 77.5 93.0627 78.8 93.0627H86.7C88 93.0627 89 94.2196 89 95.7235V104.863C89 106.251 88 107.408 86.7 107.408H84.5V127.075H86.7V110.069C89.3 109.953 91.2 107.524 91.2 104.978V95.7235C91.2 92.8314 89.6 90.5176 87.1 90.5176Z" fill="black"/>
  <path fill-rule="evenodd" clip-rule="evenodd" d="M86.9 57.3157C86.9 59.8608 85.1 61.8274 83 61.8274C80.8 61.8274 79.1 59.7451 79.1 57.3157C79.1 54.7706 80.9 52.8039 83 52.8039C85.1 52.8039 86.9 54.7706 86.9 57.3157ZM76.8 57.3157C76.8 61.249 79.6 64.4882 83 64.4882C86.4 64.4882 89.2 61.249 89.2 57.3157C89.2 53.3823 86.4 50.1431 83 50.1431C79.6 50.1431 76.8 53.3823 76.8 57.3157Z" fill="#BF2026"/>
  <path fill-rule="evenodd" clip-rule="evenodd" d="M74.5 62.4059V52.8039C74.5 49.9117 72.5 47.598 70 47.598H62C59.8 47.598 57.6 49.2176 57.6 52.2255C57.6 52.2255 57.6 52.6882 57.6 52.8039H42.8V55.349H59.8V52.8039C59.8 51.4157 60.8 50.1431 62 50.1431H70C71.3 50.1431 72.3 51.3 72.3 52.8039V61.9431C72.3 63.447 71.3 64.6039 70 64.6039H62.1C60.9 64.6039 59.9 63.447 59.9 61.9431V59.398H42.9V62.0588H57.7C57.8 65.0667 59.9 67.2647 62.1 67.2647H70.1C72.5 67.149 74.5 65.298 74.5 62.4059Z" fill="#BF2026"/>
  <path fill-rule="evenodd" clip-rule="evenodd" d="M101.5 61.7118C99.3 61.7118 97.6 59.6294 97.6 57.2C97.6 54.6549 99.4 52.6883 101.5 52.6883C103.7 52.6883 105.4 54.7706 105.4 57.2C105.4 59.7451 103.6 61.7118 101.5 61.7118ZM101.5 50.0275C98.1 50.0275 95.3 53.2667 95.3 57.2C95.3 61.1333 98.1 64.3726 101.5 64.3726C104.9 64.3726 107.7 61.1333 107.7 57.2C107.6 53.2667 104.9 50.0275 101.5 50.0275Z" fill="#F8D200"/>
  <path fill-rule="evenodd" clip-rule="evenodd" d="M97 47.3666H105.4C107.9 47.3666 109.9 45.0529 109.9 42.1608V32.9059C109.9 30.3608 108.5 27.8157 105.9 27.8157C105.9 27.8157 105.5 27.8157 105.4 27.8157V10.6941H103.2V30.3608H105.4C106.6 30.3608 107.7 31.5176 107.7 32.9059V42.1608C107.7 43.6647 106.7 44.8215 105.4 44.8215H97.5C96.2 44.8215 95.2 43.6647 95.2 42.1608V33.0215C95.2 31.6333 96.2 30.4764 97.5 30.4764H99.7V10.8098H97.5V27.9313C94.9 28.047 93 30.4764 93 33.0215V42.2764C92.9 45.0529 94.5 47.3666 97 47.3666Z" fill="#F8D200"/>
  <path fill-rule="evenodd" clip-rule="evenodd" d="M101.4 88.0882H103.7V81.6098H108V79.4118H103.8V76.1725H111.5V73.6274H101.5V88.0882H101.4Z" fill="black"/>
  <path fill-rule="evenodd" clip-rule="evenodd" d="M120.8 73.6274V88.0882H118.4V73.6274H120.8Z" fill="black"/>
  <path fill-rule="evenodd" clip-rule="evenodd" d="M132.1 88.0882V76.2882H127.7V73.6274H138.5V76.2882H134.4V88.0882H132.1Z" fill="black"/>
  <path fill-rule="evenodd" clip-rule="evenodd" d="M150.4 86.4686L148.8 88.3196L142.2 80.8L148.5 73.3961L150.2 75.247L145.5 80.8L150.4 86.4686Z" fill="black"/>
  <path fill-rule="evenodd" clip-rule="evenodd" d="M162.1 76.2882C164.3 76.2882 166.1 78.3706 166.1 80.9157C166.1 83.4608 164.3 85.5432 162.1 85.5432C159.9 85.5432 158.1 83.4608 158.1 80.9157C158.1 78.2549 159.9 76.2882 162.1 76.2882ZM162.1 88.0882C165.6 88.0882 168.4 84.849 168.4 80.8C168.4 76.751 165.6 73.5118 162.1 73.5118C158.6 73.5118 155.8 76.751 155.8 80.8C155.8 84.849 158.6 88.0882 162.1 88.0882Z" fill="black"/>
    <svg x="196" y="16" width="270" height="111" viewBox="0 0 645.45 201.26">
      <path d="m82.28,58.66c0-6.48,5.25-11.73,11.73-11.73s11.74,5.25,11.74,11.73-5.26,11.74-11.74,11.74-11.73-5.26-11.73-11.74" fill="#000"/>
      <path d="m223.1,58.66c0-6.48,5.26-11.73,11.73-11.73s11.74,5.25,11.74,11.73-5.25,11.74-11.74,11.74-11.73-5.26-11.73-11.74" fill="#bcbcbc"/>
      <path d="m363.91,58.66c0-6.48,5.26-11.73,11.74-11.73s11.73,5.25,11.73,11.73-5.26,11.74-11.73,11.74-11.74-5.26-11.74-11.74" fill="#bcbcbc"/>
      <path d="m504.73,58.66c0-6.48,5.26-11.73,11.73-11.73s11.74,5.25,11.74,11.73-5.26,11.74-11.74,11.74-11.73-5.26-11.73-11.74" fill="#bcbcbc"/>
      <path d="m117.48,58.66c0-6.48,5.26-11.73,11.74-11.73s11.74,5.25,11.74,11.73-5.26,11.74-11.74,11.74-11.74-5.26-11.74-11.74" fill="#e30613"/>
      <path d="m258.3,58.66c0-6.48,5.25-11.73,11.74-11.73s11.73,5.25,11.73,11.73-5.25,11.74-11.73,11.74-11.74-5.26-11.74-11.74" fill="#bcbcbc"/>
      <path d="m399.12,58.66c0-6.48,5.25-11.73,11.73-11.73s11.74,5.25,11.74,11.73-5.25,11.74-11.74,11.74-11.73-5.26-11.73-11.74" fill="#bcbcbc"/>
      <path d="m539.94,58.66c0-6.48,5.25-11.73,11.73-11.73s11.73,5.25,11.73,11.73-5.25,11.74-11.73,11.74-11.73-5.26-11.73-11.74" fill="#bcbcbc"/>
      <path d="m152.69,58.66c0-6.48,5.25-11.73,11.73-11.73s11.73,5.25,11.73,11.73-5.25,11.74-11.73,11.74-11.73-5.26-11.73-11.74" fill="#f8d200"/>
      <path d="m293.51,58.66c0-6.48,5.25-11.73,11.73-11.73s11.73,5.25,11.73,11.73-5.25,11.74-11.73,11.74-11.73-5.26-11.73-11.74" fill="#bcbcbc"/>
      <path d="m434.32,58.66c0-6.48,5.25-11.73,11.74-11.73s11.73,5.25,11.73,11.73-5.25,11.74-11.73,11.74-11.74-5.26-11.74-11.74" fill="#bcbcbc"/>
      <path d="m575.14,58.66c0-6.48,5.26-11.73,11.74-11.73s11.73,5.25,11.73,11.73-5.25,11.74-11.73,11.74-11.74-5.26-11.74-11.74" fill="#bcbcbc"/>
      <path d="m47.08,58.66c0-6.48,5.25-11.73,11.73-11.73s11.73,5.25,11.73,11.73-5.25,11.74-11.73,11.74-11.73-5.26-11.73-11.74" fill="#bcbcbc"/>
      <path d="m187.89,58.66c0-6.48,5.25-11.73,11.74-11.73s11.73,5.25,11.73,11.73-5.25,11.74-11.73,11.74-11.74-5.26-11.74-11.74" fill="#bcbcbc"/>
      <path d="m328.71,58.66c0-6.48,5.25-11.73,11.74-11.73s11.73,5.25,11.73,11.73-5.25,11.74-11.73,11.74-11.74-5.26-11.74-11.74" fill="#bcbcbc"/>
      <path d="m469.53,58.66c0-6.48,5.26-11.73,11.73-11.73s11.73,5.25,11.73,11.73-5.25,11.74-11.73,11.74-11.73-5.26-11.73-11.74" fill="#bcbcbc"/>
      <path fill="#000" d="m47.32,151.82c0,1.19.48,1.66,1.66,1.66h8.08c1.19,0,1.66-.48,1.66-1.66v-56.07c0-1.19-.48-1.66-1.66-1.66h-8.08c-1.19,0-1.66.48-1.66,1.66v56.07h0Zm51-57.74h-28.51c-1.19,0-1.66.48-1.66,1.66v6.81c0,1.19.48,1.66,1.66,1.66h7.05c1.19,0,1.5.32,1.5,1.5v46.09c0,1.19.48,1.66,1.66,1.66h8.08c1.19,0,1.66-.48,1.66-1.66v-46.09c0-1.19.32-1.5,1.5-1.5h7.05c1.19,0,1.66-.48,1.66-1.66v-6.81c0-1.19-.48-1.66-1.66-1.66h0Zm24.86,32.47h-18.06c-1.19,0-1.66.47-1.66,1.66v4.75c0,1.19.47,1.66,1.66,1.66h18.06c1.19,0,1.66-.47,1.66-1.66v-4.75c0-1.19-.47-1.66-1.66-1.66h0Zm13.2,26.93h8.08c1.19,0,1.66-.48,1.66-1.66v-16.79c0-1.19.32-1.51,1.5-1.51h3.72c9.27,0,16.24-7.05,16.24-17.9v-3.56c0-10.85-6.97-17.98-16.24-17.98h-14.97c-1.19,0-1.66.48-1.66,1.66v56.07c0,1.19.48,1.66,1.66,1.66h0Zm11.25-30.65c-1.19,0-1.5-.32-1.5-1.51v-15.6c0-1.19.32-1.5,1.5-1.5h2.54c3.17,0,6.02,2.45,6.02,7.76v3.09c0,5.31-2.85,7.76-6.02,7.76h-2.54Zm52.52,20.51h-10.14c-1.19,0-1.51-.32-1.51-1.51v-46.09c0-1.19-.48-1.66-1.66-1.66h-8.08c-1.19,0-1.66.48-1.66,1.66v56.07c0,1.19.48,1.66,1.66,1.66h21.38c1.19,0,1.66-.48,1.66-1.66v-6.81c0-1.19-.48-1.66-1.66-1.66h0Zm9.92,8.55c-.32,1.19.32,1.58,1.19,1.58h8.32c1.03,0,1.58-.32,1.9-1.58l1.5-6.81c.24-.95.55-1.11,1.58-1.11h8.47c1.03,0,1.35.16,1.58,1.11l1.5,6.81c.32,1.27.87,1.58,1.9,1.58h8.32c.87,0,1.5-.4,1.19-1.58l-13.38-56.23c-.32-1.35-.87-1.58-2.14-1.58h-6.41c-1.27,0-1.82.24-2.14,1.58l-13.38,56.23h0Zm15.05-18.93l3.25-16.32c.08-.55.79-.55.95,0l3.25,16.32c.08.55-.24.87-.63.87h-6.18c-.47,0-.79-.32-.63-.87h0Zm65.71-38.89h-8.16c-1.19,0-1.66.48-1.66,1.66v29.3c0,.55-.63.63-.87.08l-13.23-29.38c-.48-1.19-1.03-1.66-2.3-1.66h-6.1c-1.19,0-1.66.48-1.66,1.66v56.07c0,1.19.48,1.66,1.66,1.66h8.08c1.19,0,1.66-.48,1.66-1.66v-29.3c0-.55.63-.63.87-.08l13.23,29.38c.56,1.19,1.03,1.66,2.38,1.66h6.1c1.19,0,1.66-.48,1.66-1.66v-56.07c0-1.19-.47-1.66-1.66-1.66h0Zm45.33,0h-8.16c-1.19,0-1.66.48-1.66,1.66v38.1c0,5.54-1.43,9.82-5.86,9.82s-5.94-4.28-5.94-9.82v-38.1c0-1.19-.47-1.66-1.66-1.66h-8.08c-1.19,0-1.66.48-1.66,1.66v38.1c0,12.28,5.54,20.35,17.34,20.35s17.35-8.08,17.35-20.35v-38.1c0-1.19-.47-1.66-1.66-1.66h0Zm46.28,0h-8.16c-1.19,0-1.66.48-1.66,1.66v29.3c0,.55-.63.63-.87.08l-13.23-29.38c-.47-1.19-1.03-1.66-2.3-1.66h-6.1c-1.19,0-1.66.48-1.66,1.66v56.07c0,1.19.47,1.66,1.66,1.66h8.08c1.19,0,1.66-.48,1.66-1.66v-29.3c0-.55.63-.63.87-.08l13.23,29.38c.56,1.19,1.03,1.66,2.38,1.66h6.1c1.19,0,1.66-.48,1.66-1.66v-56.07c0-1.19-.47-1.66-1.66-1.66h0Zm44.7,24.71h-14.26c-1.19,0-1.58.4-1.58,1.58v5.86c0,1.19.4,1.58,1.58,1.58h3.48c1.27,0,1.58.32,1.58,1.58v7.05c0,4.28-2.22,7.21-5.86,7.21-4.36,0-6.1-4.28-6.1-9.82v-20.12c0-5.54,1.51-9.82,5.94-9.82,3.64,0,5.15,2.93,5.54,5.78.16.87.55,1.19,1.43,1.19h8.71c.95,0,1.03-.63,1.03-1.43-.24-8.71-5.7-16.08-16.71-16.08-11.8,0-17.34,8.08-17.34,20.35v20.12c0,12.28,5.54,20.35,17.34,20.35,11.17,0,16.79-7.52,16.79-17.03v-16.79c0-1.19-.4-1.58-1.58-1.58h0Zm45.84,19.72c0-15.84-20.83-22.34-21.94-30.33-.32-2.69,1.42-5.07,4.43-5.07,3.25,0,4.44,3.33,4.91,6.02.08.87.48,1.19,1.35,1.19h8.08c.95,0,1.11-.63,1.03-1.43-.16-8.63-5.39-15.52-15.68-15.52-9.66,0-15.68,6.34-15.68,14.73,0,16.08,23.05,20.83,21.94,31.13-.16,3.17-2.38,5.31-5.62,5.31-4.52,0-6.34-4.12-6.65-7.13-.08-.87-.56-1.19-1.43-1.19h-8.08c-.95,0-1.03.63-1.03,1.43.08,10.14,7.52,16.55,17.11,16.55,7.68,0,17.27-4.83,17.27-15.68h0Zm45.16,13.38l-8.87-21.94c4.12-3.09,6.65-8.32,6.65-14.89v-3.01c0-10.85-6.97-17.98-16.24-17.98h-14.97c-1.19,0-1.66.48-1.66,1.66v56.07c0,1.19.48,1.66,1.66,1.66h8.08c1.19,0,1.66-.48,1.66-1.66v-17.27c0-1.19.32-1.51,1.51-1.51h3.09l7.52,19.33c.32.79.87,1.11,1.9,1.11h8.87c.87,0,1.19-.63.79-1.58h0Zm-23.68-31.05v-15.13c0-1.19.32-1.5,1.51-1.5h2.53c3.17,0,6.02,2.45,6.02,7.76v2.61c0,5.31-2.85,7.76-6.02,7.76h-2.53c-1.19,0-1.51-.32-1.51-1.51h0Zm31.85,31.05c-.32,1.19.32,1.58,1.19,1.58h8.32c1.03,0,1.58-.32,1.9-1.58l1.51-6.81c.24-.95.56-1.11,1.58-1.11h8.47c1.03,0,1.35.16,1.58,1.11l1.5,6.81c.32,1.27.87,1.58,1.9,1.58h8.32c.87,0,1.51-.4,1.19-1.58l-13.38-56.23c-.32-1.35-.87-1.58-2.14-1.58h-6.42c-1.27,0-1.82.24-2.14,1.58l-13.38,56.23h0Zm15.05-18.93l3.25-16.32c.08-.55.79-.55.95,0l3.25,16.32c.08.55-.24.87-.63.87h-6.18c-.48,0-.79-.32-.63-.87h0Zm55.65-38.89h-28.51c-1.19,0-1.66.48-1.66,1.66v6.81c0,1.19.48,1.66,1.66,1.66h7.05c1.19,0,1.51.32,1.51,1.5v46.09c0,1.19.47,1.66,1.66,1.66h8.08c1.19,0,1.66-.48,1.66-1.66v-46.09c0-1.19.32-1.5,1.5-1.5h7.05c1.19,0,1.66-.48,1.66-1.66v-6.81c0-1.19-.47-1.66-1.66-1.66h0Z"/>
    </svg>
</svg>
